<svg xmlns="http://www.w3.org/2000/svg" xmlns:xlink="http://www.w3.org/1999/xlink" width="500" zoomAndPan="magnify" viewBox="0 0 375 374.999991" height="500" preserveAspectRatio="xMidYMid meet" version="1.0"><defs><clipPath id="7dfb57d899"><path d="M 42 0 L 332.953125 0 L 332.953125 375 L 42 375 Z M 42 0 " clip-rule="nonzero"/></clipPath></defs><g clip-path="url(#7dfb57d899)"><path fill="#000000" d="M 212.289062 25.84375 C 198.027344 16.75 185.839844 13.746094 185.839844 13.746094 C 182.710938 12.96875 179.484375 14.613281 178.285156 17.613281 C 172.011719 33.285156 171.378906 48.964844 172.601562 61.421875 C 153.644531 67.847656 135.976562 78.554688 121.640625 92.898438 C 96.054688 118.488281 77.542969 129.480469 65.324219 133.949219 C 56.214844 137.277344 50.574219 136.445312 50.574219 136.445312 C 50.574219 136.445312 50.765625 136.503906 50.765625 136.503906 L 50.765625 136.515625 C 49.703125 136.160156 48.542969 136.078125 47.367188 136.335938 C 44.21875 137.015625 42.109375 139.890625 42.289062 143.003906 C 42.167969 146.367188 42.503906 157.855469 51.40625 171.261719 C 61.066406 185.796875 81.359375 203.261719 124.722656 213.464844 C 130.078125 214.730469 135.265625 216.097656 140.261719 217.570312 C 146.9375 233.242188 157.230469 271.253906 116.175781 298.632812 C 113.207031 300.605469 112.40625 304.613281 114.378906 307.582031 C 116.355469 310.546875 120.367188 311.347656 123.328125 309.371094 C 165 281.585938 162.425781 244.648438 155.824219 222.6875 C 236.269531 252.074219 263.917969 310.816406 236.613281 365.578125 C 236.503906 365.796875 236.40625 366.015625 236.316406 366.242188 L 236.277344 366.34375 C 235.929688 367.3125 235.820312 368.324219 235.941406 369.3125 L 235.96875 369.519531 C 236.105469 370.410156 236.425781 371.28125 236.941406 372.074219 L 237.03125 372.207031 L 237.128906 372.347656 L 237.214844 372.464844 C 237.257812 372.523438 237.308594 372.578125 237.355469 372.636719 L 237.425781 372.722656 L 237.503906 372.8125 C 238.175781 373.574219 238.988281 374.140625 239.871094 374.507812 L 240 374.5625 L 240.078125 374.585938 C 241.167969 374.992188 242.347656 375.101562 243.496094 374.898438 L 243.652344 374.863281 L 243.71875 374.851562 C 244.34375 374.714844 244.957031 374.484375 245.53125 374.160156 C 249.234375 372.121094 332.675781 324.863281 332.675781 200.730469 C 332.675781 136.988281 310.285156 96.441406 279.535156 74.585938 C 272.210938 34.402344 240.453125 2.535156 240.453125 2.535156 C 238.492188 0.574219 235.492188 0.0820312 233.007812 1.328125 C 224.410156 5.628906 218.109375 13.464844 213.707031 22.675781 C 213.210938 23.714844 212.738281 24.773438 212.289062 25.84375 Z M 257.414062 345.632812 C 284.855469 316.257812 295.285156 285.417969 293.414062 258.5 C 290.121094 211.265625 248.609375 176.945312 198.53125 187.679688 C 149.699219 198.148438 116.15625 196.03125 93.179688 189.070312 C 102.308594 193.515625 113.640625 197.59375 127.679688 200.90625 C 134.117188 202.417969 140.320312 204.085938 146.289062 205.894531 C 146.640625 205.972656 146.984375 206.074219 147.320312 206.210938 C 233.890625 232.828125 270.042969 289.484375 257.414062 345.632812 Z M 305.203125 281.230469 C 313.839844 259.480469 319.769531 232.847656 319.769531 200.730469 C 319.769531 141.078125 299.195312 103.289062 270.03125 83.707031 C 268.53125 82.699219 267.519531 81.105469 267.25 79.316406 C 262.726562 49.648438 242.921875 24.617188 234.8125 15.425781 C 230.773438 18.660156 227.742188 23.234375 225.355469 28.238281 C 224.03125 31 222.914062 33.898438 221.960938 36.835938 C 221.871094 37.550781 221.65625 38.253906 221.316406 38.921875 C 218.894531 47.105469 217.722656 55.378906 217.128906 61.554688 C 216.8125 64.789062 214.144531 67.285156 210.902344 67.382812 C 201.398438 67.6875 191.871094 69.183594 182.621094 71.804688 C 182.007812 72.121094 181.34375 72.339844 180.625 72.445312 C 180.523438 72.464844 180.414062 72.476562 180.308594 72.488281 C 161.863281 78.109375 144.597656 88.191406 130.761719 102.023438 C 95.257812 137.542969 71.410156 146.960938 58.453125 149 C 67.453125 164.453125 98.3125 195.960938 195.828125 175.054688 C 254.152344 162.554688 302.453125 202.589844 306.285156 257.59375 C 306.8125 265.203125 306.484375 273.125 305.203125 281.230469 Z M 208.0625 38.519531 C 200.304688 33.183594 193.015625 29.917969 188.265625 28.117188 C 185.054688 38.699219 184.589844 49.046875 185.238281 57.8125 C 191.722656 56.300781 198.3125 55.28125 204.914062 54.785156 C 205.570312 49.839844 206.570312 44.226562 208.0625 38.519531 Z M 208.0625 38.519531 " fill-opacity="1" fill-rule="evenodd"/></g></svg>